<svg id="visual" viewBox="0 0 540 1000" width="540" height="1000" xmlns="http://www.w3.org/2000/svg" xmlns:xlink="http://www.w3.org/1999/xlink" version="1.1"><g transform="translate(226.41045062170463 687.5090085846346)"><path d="M416.2 -740.3C494.8 -675.4 483.4 -474 424 -327.8C364.7 -181.7 257.3 -90.8 186.2 -41.1C115 8.7 80 17.3 79.9 60.5C79.9 103.6 114.7 181.3 107.2 256.6C99.7 332 49.8 405 10.8 386.4C-28.3 367.7 -56.7 257.5 -80.2 191.4C-103.7 125.3 -122.4 103.4 -167.8 78.9C-213.1 54.3 -285.1 27.2 -334.3 -28.4C-383.5 -84 -410 -168 -350.5 -168C-291 -168 -145.5 -84 -72.7 -152.3C0 -220.7 0 -441.3 84.4 -587.5C168.7 -733.6 337.5 -805.2 416.2 -740.3" fill="#BB004B"></path></g></svg>