<svg id="visual" viewBox="0 0 540 1000" width="540" height="1000" xmlns="http://www.w3.org/2000/svg" xmlns:xlink="http://www.w3.org/1999/xlink" version="1.1"><g transform="translate(370.27971395163405 472.8371545193427)"><path d="M271.4 -463.2C304.4 -451 251.4 -282.7 196.3 -179.5C141.2 -76.3 84.1 -38.2 168.7 48.8C253.3 135.8 479.5 271.7 533.1 372.3C586.7 472.9 467.6 538.2 350 586.8C232.3 635.4 116.2 667.2 43.8 591.3C-28.5 515.4 -57 331.7 -118.2 250.6C-179.4 169.4 -273.3 190.7 -427.8 166C-582.3 141.3 -797.4 70.7 -736.2 35.3C-675 0 -337.5 0 -247.8 -137C-158.2 -274 -316.3 -547.9 -316.3 -579.2C-316.3 -610.6 -158.2 -399.3 -19.5 -365.5C119.2 -331.7 238.3 -475.5 271.4 -463.2" fill="#BB004B"></path></g></svg>