<svg id="visual" viewBox="0 0 540 1000" width="540" height="1000" xmlns="http://www.w3.org/2000/svg" xmlns:xlink="http://www.w3.org/1999/xlink" version="1.1"><g transform="translate(347.074750846215 403.0071287764163)"><path d="M230.3 -412.1C232.6 -397.6 123.2 -202.8 152.9 -104.1C182.6 -5.3 351.3 -2.7 421.9 40.7C492.4 84.2 464.9 168.3 392.1 192.4C319.4 216.5 201.4 180.6 128.6 267.7C55.7 354.8 27.8 564.9 -20.9 601.1C-69.7 637.3 -139.3 499.7 -139.3 370.5C-139.3 241.3 -69.7 120.7 -46 60.3C-22.3 0 -44.7 0 -190.8 -84.4C-337 -168.8 -606.9 -337.5 -616.7 -373.9C-626.6 -410.2 -376.3 -314.2 -230.1 -245.7C-84 -177.2 -42 -136.1 36 -198.4C114 -260.8 228 -426.6 230.3 -412.1" fill="#BB004B"></path></g></svg>