<svg id="visual" viewBox="0 0 540 1000" width="540" height="1000" xmlns="http://www.w3.org/2000/svg" xmlns:xlink="http://www.w3.org/1999/xlink" version="1.1"><g transform="translate(389.5963761245811 638.0093478247472)"><path d="M120.8 -332C160.7 -186.3 199.8 -162.1 304.9 -127.1C410 -92 581 -46 586.5 3.2C592 52.3 432 104.7 386 242.1C340 379.5 408 602 362.7 575.8C317.3 549.6 158.7 274.8 73 148.4C-12.7 21.9 -25.3 43.9 -161.3 122.4C-297.3 200.9 -556.5 335.9 -698.5 325C-840.5 314 -865.3 157 -765 57.9C-664.6 -41.2 -439.3 -82.3 -357.9 -198.2C-276.4 -314.1 -339 -504.8 -303.3 -652.9C-267.7 -801.1 -133.8 -906.8 -46.7 -826C40.5 -745.1 81 -477.8 120.8 -332" fill="#BB004B"></path></g></svg>