<svg id="visual" viewBox="0 0 960 540" width="960" height="540" xmlns="http://www.w3.org/2000/svg" xmlns:xlink="http://www.w3.org/1999/xlink" version="1.1"><g transform="translate(-44.71762260947156 484.2746707873266)"><path d="M158.5 -225.7C234.9 -197.6 346.7 -203.5 422.3 -157.7C498 -111.9 537.5 -14.5 504.3 57.9C471.1 130.2 365.2 177.4 288.8 230.9C212.4 284.4 165.5 344.2 100.7 380.3C35.9 416.4 -46.9 428.9 -143.1 427.9C-239.4 426.9 -349.3 412.3 -389.2 347.6C-429.1 282.9 -399.2 168 -404.2 64.4C-409.3 -39.1 -449.3 -131.3 -408.7 -172.7C-368.1 -214.1 -246.7 -204.6 -165.2 -230.4C-83.6 -256.1 -41.8 -317.1 -0.4 -316.5C41.1 -315.9 82.1 -253.8 158.5 -225.7" fill="#BB004B"></path></g></svg>