<svg id="visual" viewBox="0 0 540 1000" width="540" height="1000" xmlns="http://www.w3.org/2000/svg" xmlns:xlink="http://www.w3.org/1999/xlink" version="1.1"><g transform="translate(323.1049316385704 442.51871297615327)"><path d="M195.1 -346.8C199.6 -335.4 113.2 -175.5 181.1 -92.9C248.9 -10.3 470.9 -5.2 488.4 10.1C505.9 25.3 318.8 50.7 203.3 50.7C87.8 50.7 43.9 25.3 21.9 151.3C0 277.3 0 554.7 -9.3 570.8C-18.7 587 -37.3 342 -183.5 287.7C-329.6 233.4 -603.2 369.8 -595.6 353.7C-587.9 337.5 -299 168.8 -248.6 29C-198.3 -110.7 -386.7 -221.3 -439.3 -315.3C-491.9 -409.3 -408.7 -486.5 -312.8 -445.2C-217 -403.9 -108.5 -243.9 -6.6 -232.5C95.3 -221.1 190.7 -358.2 195.1 -346.8" fill="#BB004B"></path></g></svg>