<svg id="visual" viewBox="0 0 540 1000" width="540" height="1000" xmlns="http://www.w3.org/2000/svg" xmlns:xlink="http://www.w3.org/1999/xlink" version="1.1"><g transform="translate(365.2351359951311 584.2666288872603)"><path d="M36.7 -162.5C73.3 -42.3 146.6 -84.7 281.8 -84.7C417 -84.7 614 -42.3 583.2 -17.8C552.5 6.8 294 13.7 205.1 93.8C116.2 173.9 196.8 327.3 190.9 361C185 394.8 92.5 308.9 -38.1 374.9C-168.8 441 -337.5 658.9 -347.2 627.3C-356.8 595.7 -207.4 314.6 -235.2 168.5C-263 22.3 -468 11.2 -603 -77.9C-737.9 -167 -802.8 -334 -767.3 -466.6C-731.7 -599.3 -595.6 -697.6 -451 -755.4C-306.3 -813.3 -153.2 -830.6 -76.6 -698C0 -565.3 0 -282.7 36.7 -162.5" fill="#BB004B"></path></g></svg>