<svg id="visual" viewBox="0 0 540 1000" width="540" height="1000" xmlns="http://www.w3.org/2000/svg" xmlns:xlink="http://www.w3.org/1999/xlink" version="1.1"><g transform="translate(245.77100378923495 646.1065555199601)"><path d="M403.6 -632.2C469.7 -660.9 433.2 -445 469.8 -298.8C506.4 -152.7 616.2 -76.3 588.2 -16.2C560.2 44 394.4 88 273.9 88.9C153.4 89.7 78.2 47.5 40.1 73.5C2 99.5 1 193.7 -39 261.3C-79 328.8 -158 369.7 -158 321.7C-158 273.7 -79 136.8 -150.3 68.4C-221.7 0 -443.3 0 -515.4 -41.6C-587.4 -83.2 -509.8 -166.3 -444.8 -245.9C-379.9 -325.4 -327.7 -401.3 -255.7 -369.2C-183.7 -337.1 -91.8 -197.1 38.5 -263.7C168.7 -330.3 337.5 -603.6 403.6 -632.2" fill="#BB004B"></path></g></svg>