<svg id="visual" viewBox="0 0 540 1000" width="540" height="1000" xmlns="http://www.w3.org/2000/svg" xmlns:xlink="http://www.w3.org/1999/xlink" version="1.1"><g transform="translate(314.4988644015578 538.1691305107046)"><path d="M393.6 -710.8C449.8 -649.4 393.3 -422 355.5 -275.8C317.6 -129.7 298.3 -64.8 286.7 -6.7C275.2 51.5 271.4 103 224.9 103C178.4 103 89.2 51.5 44.6 154.4C0 257.3 0 514.7 -54.5 609.1C-109 703.5 -218 634.9 -240.7 519.3C-263.3 403.8 -199.6 241.1 -263.6 146.7C-327.6 52.3 -519.3 26.2 -505.6 7.9C-491.9 -10.3 -272.8 -20.7 -223 -139.6C-173.1 -258.5 -292.6 -486.1 -283.6 -574.7C-274.7 -663.4 -137.3 -613.2 15.7 -640.4C168.7 -667.6 337.5 -772.2 393.6 -710.8" fill="#BB004B"></path></g></svg>