<svg id="visual" viewBox="0 0 540 1000" width="540" height="1000" xmlns="http://www.w3.org/2000/svg" xmlns:xlink="http://www.w3.org/1999/xlink" version="1.1"><g transform="translate(65.81146742805072 357.31358544355044)"><path d="M69.9 -89.7C139.7 -80.7 279.4 -161.3 448.2 -161.3C616.9 -161.3 814.7 -80.7 849.9 20.3C885.2 121.3 757.8 242.7 597.8 257.8C437.8 273 245.2 182 140.1 229.8C35 277.6 17.5 464.3 -48.5 548.3C-114.5 632.3 -229 613.6 -271.3 529.6C-313.6 445.5 -283.7 296 -320.2 196.8C-356.8 97.7 -459.9 48.8 -446.2 7.9C-432.5 -33 -302 -66 -242.1 -124.9C-182.3 -183.8 -193.2 -268.6 -164.6 -301.4C-136 -334.2 -68 -315.1 -34 -256.2C0 -197.3 0 -98.7 69.9 -89.7" fill="#BB004B"></path></g></svg>