<svg id="visual" viewBox="0 0 540 1000" width="540" height="1000" xmlns="http://www.w3.org/2000/svg" xmlns:xlink="http://www.w3.org/1999/xlink" version="1.1"><g transform="translate(181.34659366408954 493.00430798469273)"><path d="M391.1 -634.7C537.3 -593.1 707.1 -549.7 703.3 -443.6C699.6 -337.5 522.3 -168.8 408.2 -65.9C294.1 37 243.2 74 221 135.2C198.8 196.4 205.4 281.8 173.4 419.3C141.3 556.8 70.7 746.4 35.3 685.2C0 624 0 312 -23.7 169.7C-47.3 27.3 -94.7 54.7 -212.4 54.7C-330 54.7 -518 27.3 -525.8 -4.5C-533.6 -36.3 -361.2 -72.7 -260.6 -102.3C-160 -131.8 -131.3 -154.7 -99.8 -262.5C-68.3 -370.4 -34.2 -563.2 44.2 -639.7C122.5 -716.2 245 -676.4 391.1 -634.7" fill="#BB004B"></path></g></svg>