<svg id="visual" viewBox="0 0 540 1000" width="540" height="1000" xmlns="http://www.w3.org/2000/svg" xmlns:xlink="http://www.w3.org/1999/xlink" version="1.1"><g transform="translate(259.47678430831684 374.91537968836883)"><path d="M167.8 -226.3C278.9 -226.5 472.9 -305.7 505.7 -281.2C538.6 -256.7 410.3 -128.3 355.1 -31.8C300 64.7 318 129.3 271 129.3C224 129.3 112 64.7 56 42.7C0 20.7 0 41.3 -84.4 187.5C-168.8 333.6 -337.5 605.2 -422.5 644C-507.5 682.7 -508.8 488.6 -445.4 342.5C-382.1 196.3 -254 98.2 -236.9 9.9C-219.7 -78.3 -313.4 -156.7 -333.3 -227.5C-353.2 -298.4 -299.3 -361.8 -231.5 -386.6C-163.7 -411.5 -81.8 -397.7 -26.8 -351.4C28.3 -305.1 56.7 -226.1 167.8 -226.3" fill="#BB004B"></path></g></svg>