<svg id="visual" viewBox="0 0 540 1000" width="540" height="1000" xmlns="http://www.w3.org/2000/svg" xmlns:xlink="http://www.w3.org/1999/xlink" version="1.1"><g transform="translate(128.12003047063956 599.8213883824765)"><path d="M271.3 -535.8C282.5 -463.3 175 -251.2 278.8 -138.6C382.5 -26 697.5 -13 810.1 65C922.7 143 832.9 286 676.5 307.5C520.2 329 297.3 229 173.5 212.5C49.7 196 24.8 263 -28.3 312.1C-81.5 361.2 -163 392.3 -163 337.3C-163 282.3 -81.5 141.2 -134.3 70.6C-187 0 -374 0 -480.2 -61.3C-586.5 -122.7 -611.9 -245.3 -521.7 -251C-431.4 -256.6 -225.5 -145.2 -119.2 -162.8C-13 -180.5 -6.5 -327.3 61.7 -434.2C130 -541.2 260 -608.3 271.3 -535.8" fill="#BB004B"></path></g></svg>