<svg id="visual" viewBox="0 0 540 1000" width="540" height="1000" xmlns="http://www.w3.org/2000/svg" xmlns:xlink="http://www.w3.org/1999/xlink" version="1.1"><g transform="translate(178.252400447434 549.6931986966035)"><path d="M67.2 -220.6C123.1 -84.1 229.1 -138.8 372.8 -133.9C516.4 -129 697.7 -64.5 751.3 30.9C804.8 126.3 730.6 252.7 584.1 252.7C437.6 252.7 218.8 126.3 109.4 118.7C0 111 0 222 -80.8 362C-161.7 502 -323.3 671 -435.5 680.3C-547.6 689.5 -610.3 539 -575.6 399C-540.9 259 -409 129.5 -302.9 61.3C-196.8 -7 -116.6 -14 -117.5 -95.6C-118.4 -177.1 -200.5 -333.2 -194.4 -498.5C-188.3 -663.7 -94.2 -838.1 -44.3 -761.5C5.7 -684.8 11.3 -357.1 67.2 -220.6" fill="#BB004B"></path></g></svg>