<svg id="visual" viewBox="0 0 960 540" width="960" height="540" xmlns="http://www.w3.org/2000/svg" xmlns:xlink="http://www.w3.org/1999/xlink" version="1.1"><g transform="translate(976.6657548118264 15.868744455196378)"><path d="M121.8 -158.1C173 -156.7 240 -148.4 254.7 -116.3C269.3 -84.2 231.7 -28.1 201.9 13.8C172.2 55.7 150.3 83.5 124.1 99.7C97.9 115.8 67.2 120.3 33.6 143.4C-0.1 166.6 -36.8 208.5 -58.9 201.6C-80.9 194.6 -88.3 138.7 -126.3 104.2C-164.4 69.7 -233.1 56.6 -266.2 20.4C-299.2 -15.8 -296.5 -75 -276.2 -128.9C-255.9 -182.8 -218 -231.5 -169 -234C-120 -236.4 -60 -192.7 -12.3 -173.5C35.3 -154.3 70.6 -159.6 121.8 -158.1" fill="#BB004B"></path></g></svg>