<svg width="750" height="750" viewBox="0 0 750 750" fill="none" xmlns="http://www.w3.org/2000/svg">
<path d="M525 400H425C411.193 400 400 411.193 400 425V625C400 638.807 411.193 650 425 650H525C538.807 650 550 638.807 550 625V425C550 411.193 538.807 400 525 400Z" fill="#3F707C"/>
<path d="M725 250H625C611.193 250 600 261.193 600 275V625C600 638.807 611.193 650 625 650H725C738.807 650 750 638.807 750 625V275C750 261.193 738.807 250 725 250Z" fill="#3F707C"/>
<path d="M325 350H225C211.193 350 200 361.193 200 375V625C200 638.807 211.193 650 225 650H325C338.807 650 350 638.807 350 625V375C350 361.193 338.807 350 325 350Z" fill="#3F707C"/>
<path d="M125 475H25C11.1929 475 0 486.193 0 500V625C0 638.807 11.1929 650 25 650H125C138.807 650 150 638.807 150 625V500C150 486.193 138.807 475 125 475Z" fill="#3F707C"/>
<path d="M750 600H0V675C0 694.891 7.90176 713.968 21.967 728.033C36.0322 742.098 55.1088 750 75 750H675C694.891 750 713.968 742.098 728.033 728.033C742.098 713.968 750 694.891 750 675V600Z" fill="#61C3DA"/>
<path d="M75 400H25C18.3696 400 12.0107 397.366 7.32233 392.678C2.63392 387.989 0 381.63 0 375C0 368.37 2.63392 362.011 7.32233 357.322C12.0107 352.634 18.3696 350 25 350H63L225 148.5C226.916 145.617 229.411 143.163 232.325 141.295C235.239 139.426 238.509 138.183 241.929 137.644C245.349 137.105 248.843 137.283 252.191 138.165C255.538 139.047 258.666 140.615 261.376 142.769C264.086 144.923 266.319 147.616 267.934 150.679C269.549 153.741 270.51 157.105 270.756 160.558C271.003 164.011 270.53 167.478 269.367 170.738C268.204 173.999 266.376 176.983 264 179.5L94.5 390.5C92.1718 393.446 89.2098 395.83 85.834 397.475C82.4581 399.12 78.7551 399.983 75 400Z" fill="#3F707C"/>
<path d="M506.25 261C500.611 260.967 495.148 259.029 490.75 255.5C485.599 251.375 482.287 245.381 481.538 238.824C480.789 232.268 482.662 225.681 486.75 220.5L655.5 9.5C657.828 6.55366 660.79 4.16964 664.166 2.52499C667.542 0.880337 671.245 0.0173121 675 0H725C731.63 0 737.989 2.63392 742.678 7.32233C747.366 12.0107 750 18.3696 750 25C750 31.6304 747.366 37.9893 742.678 42.6777C737.989 47.3661 731.63 50 725 50H687L525 251.5C522.752 254.35 519.91 256.676 516.672 258.316C513.434 259.957 509.878 260.873 506.25 261Z" fill="#3F707C"/>
<path d="M329.957 134.935L299.964 174.94L419.979 264.92L449.972 224.915L329.957 134.935Z" fill="#3F707C"/>
<path d="M275 200C316.421 200 350 166.421 350 125C350 83.5786 316.421 50 275 50C233.579 50 200 83.5786 200 125C200 166.421 233.579 200 275 200Z" fill="#61C3DA"/>
<path d="M475 349.75C516.421 349.75 550 316.171 550 274.75C550 233.329 516.421 199.75 475 199.75C433.579 199.75 400 233.329 400 274.75C400 316.171 433.579 349.75 475 349.75Z" fill="#61C3DA"/>
</svg>
